<svg xmlns="http://www.w3.org/2000/svg" viewBox="0 0 64 64" role="img" aria-label="Festival favicon">
  <rect width="64" height="64" rx="14" fill="#062a63"/>
  <circle cx="48" cy="14" r="5" fill="#ffd83d"/>
  <circle cx="16" cy="16" r="3" fill="#f28a00"/>
  <path d="M17 48c4-18 16-30 31-34 1 17-7 31-22 40z" fill="#fff7df"/>
  <path d="M21 46c4-12 12-21 24-27-1 12-7 22-18 30z" fill="#d80f1f"/>
  <path d="M26 45c4-8 9-14 17-19-2 9-7 16-15 22z" fill="#ffd83d"/>
  <path d="M17 48l11 6" stroke="#031638" stroke-width="4" stroke-linecap="round"/>
  <path d="M45 16l-28 32" stroke="#031638" stroke-width="2" stroke-linecap="round" opacity=".22"/>
  <path d="M48 26l4 3 5-2-3 5 3 4-5-1-4 4v-5l-5-2 5-2z" fill="#16a05d"/>
</svg>
